<?xml version="1.0" encoding="utf-8"?>
<!-- Generator: Adobe Illustrator 16.0.0, SVG Export Plug-In . SVG Version: 6.00 Build 0)  -->
<!DOCTYPE svg PUBLIC "-//W3C//DTD SVG 1.1//EN" "http://www.w3.org/Graphics/SVG/1.1/DTD/svg11.dtd">
<svg version="1.1" id="Layer_1" xmlns="http://www.w3.org/2000/svg" xmlns:xlink="http://www.w3.org/1999/xlink" x="0px" y="0px"
	 width="629.127px" height="1000px" viewBox="935.449 749.994 629.127 1000" enable-background="new 935.449 749.994 629.127 1000"
	 xml:space="preserve">
<g>
	<path d="M1208.339,1041.979c0,0,0-31.808-1.906-47.074c-2.862-20.359-13.992-49.623-33.713-74.432
		c-18.129-22.265-50.892-38.169-62.022-40.712c-13.042-2.862-37.532,1.275-49.299,8.268c-12.091,6.999-24.496,26.402-42.305,27.358
		c-17.81,0.638-25.446-7.949-30.533-31.489c-4.769-22.897-0.956-67.433,19.403-93.192c20.991-26.402,38.488-24.177,45.167-21.309
		c6.361,2.862,10.498,8.268,12.723,11.135c1.906,2.862,8.586,16.223,10.179,20.991c1.588,4.45,4.137,21.941,24.809,29.896
		c20.672,8.273,45.486,19.403,66.477,35.307c22.896,16.86,51.842,48.03,60.434,70.933c9.223,23.221,11.13,33.713,13.673,45.167
		c2.543,11.767,6.042,39.125,6.68,43.894c0.319,4.455,0.638,16.854,0.638,16.854s21.628,1.912,28.626,2.862
		c6.999,0.637,25.76,3.818,25.76,3.818s18.14-53.117,23.539-66.477c12.724-30.538,39.119-72.201,48.03-87.473
		c12.404-21.309,39.119-57.885,39.119-58.841c0-1.274-5.093-20.359-2.225-42.938c2.225-17.497,8.898-39.762,20.034-44.53h16.684
		c7.277,2.168,14.003,6.231,17.036,8.905c5.4,5.087,20.99,15.904,30.527,27.353c9.547,11.454,22.271,29.901,23.539,40.075
		c1.281,9.861,1.588,27.357-14.623,32.444c-15.903,5.093-36.263,0.956-44.53,4.137c-9.224,3.818-29.907,15.272-46.767,36.582
		c-66.146,82.381-70.295,155.856-70.295,155.856s53.754,3.5,70.938,5.406c20.359,2.543,81.738,1.593,87.787,1.593
		c9.547,0,51.21,11.767,56.935,46.442c5.724,34.982-3.813,93.829-6.044,111.958c-2.855,21.628-25.439,131.679-38.487,163.493
		c-7.636,19.084-32.438,93.187-67.427,138.348c-13.048,16.86-30.539,27.671-55.666,24.496c-33.07-4.443-70.613-9.855-70.613-9.855
		s-9.537,31.176-12.08,47.387c-2.544,16.229-0.956,44.218,0.955,52.799c1.588,7.636,3.813,14.635,3.813,14.635
		s29.265-7.636,50.255-4.137c30.22,5.411,46.755,18.129,61.715,32.126c20.984,20.035,20.672,56.61,20.672,56.61
		s-14.948,12.723-41.663,12.723c-27.363,0-72.525-12.723-93.197-21.314c-20.684-8.581-62.983-13.668-64.252-45.168
		c-1.274-27.352,11.454-20.348,18.766-48.029c6.999-25.44,1.912-63.615,0.956-70.603c-0.956-6.999-6.681-34.675-6.681-34.675
		l-25.764-1.912c0,0-11.767,37.543-13.042,58.209c-0.956,20.359-4.455,50.887-2.23,56.61c0.956,3.5,8.586,15.903,6.68,30.221
		c-2.23,14.315-1.907,17.184-21.947,26.714c-10.18,5.093-35.307,16.229-59.797,25.771c-23.221,8.899-43.574,16.536-51.21,18.761
		c-3.943,1.269-9.935,4.256-17.6,6.043h-23.841c-1.471-0.359-2.925-0.783-4.358-1.27c-26.715-9.224-37.219-13.047-39.119-14.635
		c-2.23-1.588-15.585-1.912-3.181-23.848c12.086-21.945,37.851-52.49,60.434-62.346c22.903-9.855,54.392-10.18,68.07-7.312
		c13.674,2.856,30.533,12.404,30.533,12.404s17.178-13.679,17.81-41.355c0.319-25.759-12.085-54.067-15.266-62.978
		c-3.5-9.224-11.135-23.847-11.135-23.847s-26.721,2.225-39.119,4.443c-12.405,1.912-32.764,8.592-45.487,5.735
		c-12.723-2.867-25.446-4.136-42.619-42.942c-3.181-7.312-5.092-21.946-10.18-35.631c-6.993-18.129-17.178-43.256-25.445-61.703
		c-14.629-31.808-35.626-91.61-41.668-118.325c-7.63-33.475-13.542-72.85-14.948-102.956v-23.625
		c1.587-25.765-1.275-41.031,33.076-63.933c36.582-24.171,114.188-36.895,152.995-40.712
		C1144.724,1042.616,1208.339,1041.979,1208.339,1041.979L1208.339,1041.979z"/>
	<path fill="#A4A17E" d="M1007.32,824.101c0,0-11.767,33.713-2.543,51.529c8.899,17.81,17.81,14.948,23.534,9.861
		c5.724-4.769,3.181-2.862,3.181-2.862s-29.264,37.537-33.719-13.673C995.548,842.229,1007.32,824.101,1007.32,824.101
		L1007.32,824.101z"/>
	<path fill="#EC2A2B" d="M1013.363,1174.615c5.725-0.951,26.402-1.269,49.936-5.406c19.403-3.181,39.125-4.455,50.255-4.137
		c11.135,0.318,20.678,0.318,21.946,7.636c1.27,6.999,1.907,15.272,0,19.084c-2.23,4.137-4.136,6.043-11.454,7.63
		c-7.636,1.594-24.171,3.818-30.22,6.999c-4.768,2.543-7.636,16.86-9.223,28.945c-3.181,24.496,0,47.711,0.956,69.982
		c0.632,15.579,6.993,30.527,3.181,38.487c-2.862,5.725-11.13,11.767-21.309,9.855c-9.224-1.912-12.723-9.548-15.585-24.803
		c-2.862-15.272-0.637-62.347,0-69.351c0.318-6.993-0.956-30.533-4.769-37.532c-3.5-6.999-7.317-15.585-13.36-14.948
		c-6.362,0.957-20.991,2.231-28.308-3.499c-5.725-4.769-11.136-10.499-7.636-17.498
		C1000.953,1179.07,1007.639,1175.565,1013.363,1174.615L1013.363,1174.615z"/>
	<path fill="#22B082" d="M1176.213,1171.434c4.455,0,10.18,3.499,10.816,8.592c0.95,6.993-0.318,8.267-2.23,11.767
		c-1.587,3.818,1.906,11.767-1.587,17.178c-1.906,2.862-3.181,5.092-17.815,6.042c-14.311,0.956-15.267-12.404-14.629-18.447
		c0.638-7.949,4.455-15.904,10.18-20.035C1166.67,1172.703,1171.763,1171.434,1176.213,1171.434L1176.213,1171.434z
		 M1160.627,1260.495c6.043-0.956,13.673-1.27,19.403,11.448c7.317,16.546,7.317,29.264,6.68,41.674
		c-0.95,13.667-3.5,23.847-3.812,26.396c-0.319,2.543,0.318,6.998-2.543,9.548c-2.863,2.224-8.586,4.455-16.541,0.631
		c-8.268-3.812-9.855-4.455-12.724-21.303c-2.862-16.86-1.906-27.995-2.543-34.676c-0.319-4.455-4.455-12.091-3.187-20.359
		C1146.63,1266.219,1154.585,1261.126,1160.627,1260.495L1160.627,1260.495z"/>
	<path fill="#F88F10" d="M1210.569,1184.157c3.494-3.5,14.947-9.224,25.446,0c10.811,8.905,17.178,30.539,19.402,36.582
		c3.181,8.273,9.225,39.757,11.136,48.661c2.225,9.224,8.268,27.995,10.493,31.495c1.911,3.18,2.235,8.592,4.779,6.355
		c2.543-1.9,18.447-25.44,22.584-33.708c4.137-8.279,24.803-50.261,28.939-60.122s26.715-58.841,28.627-62.346
		c1.587-3.181,5.724-12.723,16.859-7.63c11.135,4.768,10.18,11.135,6.355,21.31c-3.499,10.179-22.584,60.434-26.715,70.932
		c-4.137,10.18-22.891,56.936-28.939,69.34c-3.824,8.592-23.54,41.986-27.363,47.387c-4.137,5.411-13.036,18.771-18.761,18.771
		c-5.724,0-11.135,1.269-17.815-7.313c-7.955-10.811-13.041-23.857-15.903-30.538c-4.455-10.812-11.136-41.663-14.316-58.204
		c-3.499-16.546-12.091-47.398-15.266-54.396c-2.862-6.043-14.948-15.266-14.948-24.177
		C1205.164,1191.787,1206.751,1187.337,1210.569,1184.157z"/>
	<path fill="#656CB2" d="M1416.993,1213.733c7.955-1.906,22.584-1.274,34.994,3.5c14.623,5.092,29.896,14.947,33.708,20.034
		c4.779,6.993,7.636,10.817,6.367,20.996c-0.632,6.681-11.768,8.593-13.048,10.812c-1.269,1.912-4.444,9.855-7.624,19.403
		c-1.6,5.092-6.043,27.67-15.916,34.026c-9.854,6.043-16.534,4.769-28.615,3.499c-11.135-1.279-23.227-4.768-32.126-13.679
		c-7.312-7.636-18.446-30.22-16.534-49.931c2.225-19.721,9.854-32.444,18.76-38.806
		C1405.545,1217.552,1410,1215.327,1416.993,1213.733L1416.993,1213.733z M1427.491,1249.678
		c-7.636,3.181-12.091,12.404-13.047,19.085c-0.956,7.954,0.644,11.135,2.543,15.591c2.236,4.443,6.999,7.942,12.092,6.992
		c3.499-0.631,10.812-3.813,14.635-7.943c4.769-4.455,4.444-13.047,2.225-16.859c-2.225-3.824-0.956-8.592,0-12.723
		s-2.867-5.725-6.68-6.362C1435.76,1247.135,1434.803,1246.497,1427.491,1249.678L1427.491,1249.678z"/>
	<path fill="#FFFFFF" d="M1123.415,1404.578c1.593-2.856,8.273-10.492,17.81-6.355c9.536,4.137,32.126,18.128,44.53,22.584
		c12.404,4.455,38.487,18.128,80.469,14.947c41.987-3.499,58.847-9.548,78.574-18.771c20.034-8.899,42.932-26.396,45.8-28.308
		c2.855-2.225,10.18-10.493,15.903-2.856c4.769,6.355-7.636,18.129-13.36,23.847c-5.725,5.719-33.72,33.082-68.702,44.53
		c-31.494,10.18-50.255,13.036-74.112,12.404c-25.765-0.955-68.389-11.767-100.191-27.352
		c-21.628-10.504-27.034-13.992-29.264-20.672C1119.278,1413.17,1121.827,1407.445,1123.415,1404.578L1123.415,1404.578z"/>
	<path fill="#5A584B" d="M1562.676,1103.688c-5.411-33.077-45.486-44.849-55.034-44.849h-6.043
		c-16.535,0.318-61.378,0.637-78.563-0.637l-22.259-1.906c-33.082-2.543-59.166-4.456-94.154-10.18
		c-18.447-2.862-65.202-6.68-80.787-6.68l-11.772-0.318c-18.447-0.318-48.98-1.588-86.831,2.543
		c-49.936,5.093-119.593,18.447-152.356,40.075c-0.638,0.638-1.275,0.957-1.906,1.274c48.029-22.896,129.136-31.488,138.997-32.444
		c37.851-3.812,69.021-2.862,87.467-2.225h11.767c15.585,0,62.352,3.818,81.106,6.68c34.982,5.724,60.759,7.949,93.83,10.179
		l22.271,1.906c17.173,1.274,61.703,0.956,78.563,0.637h5.725c10.18,0,52.798,12.405,58.521,47.711
		c1.281,7.949,1.912,17.178,1.912,26.715c0,27.671-4.455,59.478-6.68,76.975l-1.27,8.905
		c-2.868,21.946-25.451,131.685-38.499,163.806l-4.768,12.092c-10.18,27.352-30.527,83.973-58.522,122.779
		c2.856-2.867,5.724-7.323,8.592-10.822c29.571-38.487,50.886-97.01,61.703-125.637l4.769-12.08
		c13.047-31.807,35.307-141.227,38.174-162.855l1.27-8.905c2.236-17.497,6.68-49.305,6.68-76.656
		C1564.576,1120.223,1563.945,1111.318,1562.676,1103.688L1562.676,1103.688z"/>
</g>
</svg>
